<?xml version="1.0" encoding="UTF-8"?>
<svg xmlns="http://www.w3.org/2000/svg" xmlns:xlink="http://www.w3.org/1999/xlink" width="258.1pt" height="300pt" viewBox="0 0 258.1 300" version="1.1">
<defs>
<clipPath id="clip1">
  <path d="M 247 284 L 258.101562 284 L 258.101562 300 L 247 300 Z M 247 284 "/>
</clipPath>
<clipPath id="clip2">
  <path d="M 247 201 L 258.101562 201 L 258.101562 218 L 247 218 Z M 247 201 "/>
</clipPath>
<clipPath id="clip3">
  <path d="M 247 82 L 258.101562 82 L 258.101562 99 L 247 99 Z M 247 82 "/>
</clipPath>
<clipPath id="clip4">
  <path d="M 247 0 L 258.101562 0 L 258.101562 16 L 247 16 Z M 247 0 "/>
</clipPath>
</defs>
<g id="surface1">
<path style="fill:none;stroke-width:5;stroke-linecap:round;stroke-linejoin:round;stroke:rgb(50%,50%,50%);stroke-opacity:1;stroke-miterlimit:10;" d="M 53.515625 263.007812 L 2527.5 263.007812 " transform="matrix(0.1,0,0,-0.1,0,300)"/>
<path style="fill:none;stroke-width:5;stroke-linecap:round;stroke-linejoin:round;stroke:rgb(50%,50%,50%);stroke-opacity:1;stroke-miterlimit:10;" d="M 53.515625 1087.65625 L 2527.5 1087.65625 " transform="matrix(0.1,0,0,-0.1,0,300)"/>
<path style="fill:none;stroke-width:5;stroke-linecap:round;stroke-linejoin:round;stroke:rgb(50%,50%,50%);stroke-opacity:1;stroke-miterlimit:10;" d="M 53.515625 1912.34375 L 2527.5 1912.34375 " transform="matrix(0.1,0,0,-0.1,0,300)"/>
<path style="fill:none;stroke-width:5;stroke-linecap:round;stroke-linejoin:round;stroke:rgb(50%,50%,50%);stroke-opacity:1;stroke-miterlimit:10;" d="M 53.515625 2736.992188 L 2527.5 2736.992188 " transform="matrix(0.1,0,0,-0.1,0,300)"/>
<path style="fill:none;stroke-width:5;stroke-linecap:round;stroke-linejoin:round;stroke:rgb(50%,50%,50%);stroke-opacity:1;stroke-miterlimit:10;" d="M 53.515625 263.007812 L 53.515625 2736.992188 " transform="matrix(0.1,0,0,-0.1,0,300)"/>
<path style="fill:none;stroke-width:5;stroke-linecap:round;stroke-linejoin:round;stroke:rgb(50%,50%,50%);stroke-opacity:1;stroke-miterlimit:10;" d="M 878.164062 263.007812 L 878.164062 2736.992188 " transform="matrix(0.1,0,0,-0.1,0,300)"/>
<path style="fill:none;stroke-width:5;stroke-linecap:round;stroke-linejoin:round;stroke:rgb(50%,50%,50%);stroke-opacity:1;stroke-miterlimit:10;" d="M 1702.851562 263.007812 L 1702.851562 2736.992188 " transform="matrix(0.1,0,0,-0.1,0,300)"/>
<path style="fill:none;stroke-width:5;stroke-linecap:round;stroke-linejoin:round;stroke:rgb(50%,50%,50%);stroke-opacity:1;stroke-miterlimit:10;" d="M 2527.5 263.007812 L 2527.5 2736.992188 " transform="matrix(0.1,0,0,-0.1,0,300)"/>
<path style="fill:none;stroke-width:7.97011;stroke-linecap:round;stroke-linejoin:round;stroke:rgb(100%,50%,0%);stroke-opacity:1;stroke-miterlimit:10;" d="M 53.515625 123.515625 L 53.515625 320.546875 " transform="matrix(0.1,0,0,-0.1,0,300)"/>
<path style=" stroke:none;fill-rule:nonzero;fill:rgb(100%,50%,0%);fill-opacity:1;" d="M 5.351562 299.601562 C 5.8125 294.300781 7.511719 289.175781 10.300781 284.648438 L 5.351562 287.648438 L 0.398438 284.648438 C 3.191406 289.175781 4.886719 294.300781 5.351562 299.601562 "/>
<path style="fill:none;stroke-width:7.97011;stroke-linecap:round;stroke-linejoin:round;stroke:rgb(100%,50%,0%);stroke-opacity:1;stroke-miterlimit:10;" d="M 53.515625 3.984375 C 58.125 56.992188 75.117188 108.242188 103.007812 153.515625 L 53.515625 123.515625 L 3.984375 153.515625 C 31.914062 108.242188 48.867188 56.992188 53.515625 3.984375 Z M 53.515625 3.984375 " transform="matrix(0.1,0,0,-0.1,0,300)"/>
<path style="fill:none;stroke-width:19.9253;stroke-linecap:round;stroke-linejoin:round;stroke:rgb(100%,50%,0%);stroke-opacity:1;stroke-miterlimit:10;" d="M 53.515625 406.914062 L 53.515625 61.5625 " transform="matrix(0.1,0,0,-0.1,0,300)"/>
<path style="fill:none;stroke-width:7.97011;stroke-linecap:round;stroke-linejoin:round;stroke:rgb(0%,50%,100%);stroke-opacity:1;stroke-miterlimit:10;" d="M 878.164062 402.460938 L 878.164062 205.429688 " transform="matrix(0.1,0,0,-0.1,0,300)"/>
<path style=" stroke:none;fill-rule:nonzero;fill:rgb(0%,50%,100%);fill-opacity:1;" d="M 87.816406 247.796875 C 87.351562 253.101562 85.65625 258.222656 82.863281 262.753906 L 87.816406 259.753906 L 92.769531 262.753906 C 89.976562 258.222656 88.28125 253.101562 87.816406 247.796875 "/>
<path style="fill:none;stroke-width:7.97011;stroke-linecap:round;stroke-linejoin:round;stroke:rgb(0%,50%,100%);stroke-opacity:1;stroke-miterlimit:10;" d="M 878.164062 522.03125 C 873.515625 468.984375 856.5625 417.773438 828.632812 372.460938 L 878.164062 402.460938 L 927.695312 372.460938 C 899.765625 417.773438 882.8125 468.984375 878.164062 522.03125 Z M 878.164062 522.03125 " transform="matrix(0.1,0,0,-0.1,0,300)"/>
<path style="fill:none;stroke-width:19.9253;stroke-linecap:round;stroke-linejoin:round;stroke:rgb(0%,50%,100%);stroke-opacity:1;stroke-miterlimit:10;" d="M 878.164062 119.101562 L 878.164062 464.453125 " transform="matrix(0.1,0,0,-0.1,0,300)"/>
<path style="fill:none;stroke-width:7.97011;stroke-linecap:round;stroke-linejoin:round;stroke:rgb(100%,50%,0%);stroke-opacity:1;stroke-miterlimit:10;" d="M 1702.851562 123.515625 L 1702.851562 320.546875 " transform="matrix(0.1,0,0,-0.1,0,300)"/>
<path style=" stroke:none;fill-rule:nonzero;fill:rgb(100%,50%,0%);fill-opacity:1;" d="M 170.285156 299.601562 C 170.746094 294.300781 172.445312 289.175781 175.234375 284.648438 L 170.285156 287.648438 L 165.332031 284.648438 C 168.125 289.175781 169.820312 294.300781 170.285156 299.601562 "/>
<path style="fill:none;stroke-width:7.97011;stroke-linecap:round;stroke-linejoin:round;stroke:rgb(100%,50%,0%);stroke-opacity:1;stroke-miterlimit:10;" d="M 1702.851562 3.984375 C 1707.460938 56.992188 1724.453125 108.242188 1752.34375 153.515625 L 1702.851562 123.515625 L 1653.320312 153.515625 C 1681.25 108.242188 1698.203125 56.992188 1702.851562 3.984375 Z M 1702.851562 3.984375 " transform="matrix(0.1,0,0,-0.1,0,300)"/>
<path style="fill:none;stroke-width:19.9253;stroke-linecap:round;stroke-linejoin:round;stroke:rgb(100%,50%,0%);stroke-opacity:1;stroke-miterlimit:10;" d="M 1702.851562 406.914062 L 1702.851562 61.5625 " transform="matrix(0.1,0,0,-0.1,0,300)"/>
<path style="fill:none;stroke-width:7.97011;stroke-linecap:round;stroke-linejoin:round;stroke:rgb(100%,50%,0%);stroke-opacity:1;stroke-miterlimit:10;" d="M 2527.5 123.515625 L 2527.5 320.546875 " transform="matrix(0.1,0,0,-0.1,0,300)"/>
<path style=" stroke:none;fill-rule:nonzero;fill:rgb(100%,50%,0%);fill-opacity:1;" d="M 252.75 299.601562 C 253.214844 294.300781 254.910156 289.175781 257.703125 284.648438 L 252.75 287.648438 L 247.800781 284.648438 C 250.589844 289.175781 252.285156 294.300781 252.75 299.601562 "/>
<g clip-path="url(#clip1)" clip-rule="nonzero">
<path style="fill:none;stroke-width:7.97011;stroke-linecap:round;stroke-linejoin:round;stroke:rgb(100%,50%,0%);stroke-opacity:1;stroke-miterlimit:10;" d="M 2527.5 3.984375 C 2532.148438 56.992188 2549.101562 108.242188 2577.03125 153.515625 L 2527.5 123.515625 L 2478.007812 153.515625 C 2505.898438 108.242188 2522.851562 56.992188 2527.5 3.984375 Z M 2527.5 3.984375 " transform="matrix(0.1,0,0,-0.1,0,300)"/>
</g>
<path style="fill:none;stroke-width:19.9253;stroke-linecap:round;stroke-linejoin:round;stroke:rgb(100%,50%,0%);stroke-opacity:1;stroke-miterlimit:10;" d="M 2527.5 406.914062 L 2527.5 61.5625 " transform="matrix(0.1,0,0,-0.1,0,300)"/>
<path style="fill:none;stroke-width:7.97011;stroke-linecap:round;stroke-linejoin:round;stroke:rgb(100%,50%,0%);stroke-opacity:1;stroke-miterlimit:10;" d="M 53.515625 948.203125 L 53.515625 1145.234375 " transform="matrix(0.1,0,0,-0.1,0,300)"/>
<path style=" stroke:none;fill-rule:nonzero;fill:rgb(100%,50%,0%);fill-opacity:1;" d="M 5.351562 217.136719 C 5.8125 211.832031 7.511719 206.710938 10.300781 202.179688 L 5.351562 205.179688 L 0.398438 202.179688 C 3.191406 206.710938 4.886719 211.832031 5.351562 217.136719 "/>
<path style="fill:none;stroke-width:7.97011;stroke-linecap:round;stroke-linejoin:round;stroke:rgb(100%,50%,0%);stroke-opacity:1;stroke-miterlimit:10;" d="M 53.515625 828.632812 C 58.125 881.679688 75.117188 932.890625 103.007812 978.203125 L 53.515625 948.203125 L 3.984375 978.203125 C 31.914062 932.890625 48.867188 881.679688 53.515625 828.632812 Z M 53.515625 828.632812 " transform="matrix(0.1,0,0,-0.1,0,300)"/>
<path style="fill:none;stroke-width:19.9253;stroke-linecap:round;stroke-linejoin:round;stroke:rgb(100%,50%,0%);stroke-opacity:1;stroke-miterlimit:10;" d="M 53.515625 1231.5625 L 53.515625 886.210938 " transform="matrix(0.1,0,0,-0.1,0,300)"/>
<path style="fill:none;stroke-width:7.97011;stroke-linecap:round;stroke-linejoin:round;stroke:rgb(0%,50%,100%);stroke-opacity:1;stroke-miterlimit:10;" d="M 878.164062 1227.148438 L 878.164062 1030.117188 " transform="matrix(0.1,0,0,-0.1,0,300)"/>
<path style=" stroke:none;fill-rule:nonzero;fill:rgb(0%,50%,100%);fill-opacity:1;" d="M 87.816406 165.332031 C 87.351562 170.636719 85.65625 175.757812 82.863281 180.285156 L 87.816406 177.285156 L 92.769531 180.285156 C 89.976562 175.757812 88.28125 170.636719 87.816406 165.332031 "/>
<path style="fill:none;stroke-width:7.97011;stroke-linecap:round;stroke-linejoin:round;stroke:rgb(0%,50%,100%);stroke-opacity:1;stroke-miterlimit:10;" d="M 878.164062 1346.679688 C 873.515625 1293.632812 856.5625 1242.421875 828.632812 1197.148438 L 878.164062 1227.148438 L 927.695312 1197.148438 C 899.765625 1242.421875 882.8125 1293.632812 878.164062 1346.679688 Z M 878.164062 1346.679688 " transform="matrix(0.1,0,0,-0.1,0,300)"/>
<path style="fill:none;stroke-width:19.9253;stroke-linecap:round;stroke-linejoin:round;stroke:rgb(0%,50%,100%);stroke-opacity:1;stroke-miterlimit:10;" d="M 878.164062 943.789062 L 878.164062 1289.101562 " transform="matrix(0.1,0,0,-0.1,0,300)"/>
<path style="fill:none;stroke-width:7.97011;stroke-linecap:round;stroke-linejoin:round;stroke:rgb(0%,50%,100%);stroke-opacity:1;stroke-miterlimit:10;" d="M 1702.851562 1227.148438 L 1702.851562 1030.117188 " transform="matrix(0.1,0,0,-0.1,0,300)"/>
<path style=" stroke:none;fill-rule:nonzero;fill:rgb(0%,50%,100%);fill-opacity:1;" d="M 170.285156 165.332031 C 169.820312 170.636719 168.125 175.757812 165.332031 180.285156 L 170.285156 177.285156 L 175.234375 180.285156 C 172.445312 175.757812 170.746094 170.636719 170.285156 165.332031 "/>
<path style="fill:none;stroke-width:7.97011;stroke-linecap:round;stroke-linejoin:round;stroke:rgb(0%,50%,100%);stroke-opacity:1;stroke-miterlimit:10;" d="M 1702.851562 1346.679688 C 1698.203125 1293.632812 1681.25 1242.421875 1653.320312 1197.148438 L 1702.851562 1227.148438 L 1752.34375 1197.148438 C 1724.453125 1242.421875 1707.460938 1293.632812 1702.851562 1346.679688 Z M 1702.851562 1346.679688 " transform="matrix(0.1,0,0,-0.1,0,300)"/>
<path style="fill:none;stroke-width:19.9253;stroke-linecap:round;stroke-linejoin:round;stroke:rgb(0%,50%,100%);stroke-opacity:1;stroke-miterlimit:10;" d="M 1702.851562 943.789062 L 1702.851562 1289.101562 " transform="matrix(0.1,0,0,-0.1,0,300)"/>
<path style="fill:none;stroke-width:7.97011;stroke-linecap:round;stroke-linejoin:round;stroke:rgb(100%,50%,0%);stroke-opacity:1;stroke-miterlimit:10;" d="M 2527.5 948.203125 L 2527.5 1145.234375 " transform="matrix(0.1,0,0,-0.1,0,300)"/>
<path style=" stroke:none;fill-rule:nonzero;fill:rgb(100%,50%,0%);fill-opacity:1;" d="M 252.75 217.136719 C 253.214844 211.832031 254.910156 206.710938 257.703125 202.179688 L 252.75 205.179688 L 247.800781 202.179688 C 250.589844 206.710938 252.285156 211.832031 252.75 217.136719 "/>
<g clip-path="url(#clip2)" clip-rule="nonzero">
<path style="fill:none;stroke-width:7.97011;stroke-linecap:round;stroke-linejoin:round;stroke:rgb(100%,50%,0%);stroke-opacity:1;stroke-miterlimit:10;" d="M 2527.5 828.632812 C 2532.148438 881.679688 2549.101562 932.890625 2577.03125 978.203125 L 2527.5 948.203125 L 2478.007812 978.203125 C 2505.898438 932.890625 2522.851562 881.679688 2527.5 828.632812 Z M 2527.5 828.632812 " transform="matrix(0.1,0,0,-0.1,0,300)"/>
</g>
<path style="fill:none;stroke-width:19.9253;stroke-linecap:round;stroke-linejoin:round;stroke:rgb(100%,50%,0%);stroke-opacity:1;stroke-miterlimit:10;" d="M 2527.5 1231.5625 L 2527.5 886.210938 " transform="matrix(0.1,0,0,-0.1,0,300)"/>
<path style="fill:none;stroke-width:7.97011;stroke-linecap:round;stroke-linejoin:round;stroke:rgb(0%,50%,100%);stroke-opacity:1;stroke-miterlimit:10;" d="M 53.515625 2051.796875 L 53.515625 1854.765625 " transform="matrix(0.1,0,0,-0.1,0,300)"/>
<path style=" stroke:none;fill-rule:nonzero;fill:rgb(0%,50%,100%);fill-opacity:1;" d="M 5.351562 82.863281 C 4.886719 88.167969 3.191406 93.289062 0.398438 97.820312 L 5.351562 94.820312 L 10.300781 97.820312 C 7.511719 93.289062 5.8125 88.167969 5.351562 82.863281 "/>
<path style="fill:none;stroke-width:7.97011;stroke-linecap:round;stroke-linejoin:round;stroke:rgb(0%,50%,100%);stroke-opacity:1;stroke-miterlimit:10;" d="M 53.515625 2171.367188 C 48.867188 2118.320312 31.914062 2067.109375 3.984375 2021.796875 L 53.515625 2051.796875 L 103.007812 2021.796875 C 75.117188 2067.109375 58.125 2118.320312 53.515625 2171.367188 Z M 53.515625 2171.367188 " transform="matrix(0.1,0,0,-0.1,0,300)"/>
<path style="fill:none;stroke-width:19.9253;stroke-linecap:round;stroke-linejoin:round;stroke:rgb(0%,50%,100%);stroke-opacity:1;stroke-miterlimit:10;" d="M 53.515625 1768.4375 L 53.515625 2113.789062 " transform="matrix(0.1,0,0,-0.1,0,300)"/>
<path style="fill:none;stroke-width:7.97011;stroke-linecap:round;stroke-linejoin:round;stroke:rgb(0%,50%,100%);stroke-opacity:1;stroke-miterlimit:10;" d="M 878.164062 2051.796875 L 878.164062 1854.765625 " transform="matrix(0.1,0,0,-0.1,0,300)"/>
<path style=" stroke:none;fill-rule:nonzero;fill:rgb(0%,50%,100%);fill-opacity:1;" d="M 87.816406 82.863281 C 87.351562 88.167969 85.65625 93.289062 82.863281 97.820312 L 87.816406 94.820312 L 92.769531 97.820312 C 89.976562 93.289062 88.28125 88.167969 87.816406 82.863281 "/>
<path style="fill:none;stroke-width:7.97011;stroke-linecap:round;stroke-linejoin:round;stroke:rgb(0%,50%,100%);stroke-opacity:1;stroke-miterlimit:10;" d="M 878.164062 2171.367188 C 873.515625 2118.320312 856.5625 2067.109375 828.632812 2021.796875 L 878.164062 2051.796875 L 927.695312 2021.796875 C 899.765625 2067.109375 882.8125 2118.320312 878.164062 2171.367188 Z M 878.164062 2171.367188 " transform="matrix(0.1,0,0,-0.1,0,300)"/>
<path style="fill:none;stroke-width:19.9253;stroke-linecap:round;stroke-linejoin:round;stroke:rgb(0%,50%,100%);stroke-opacity:1;stroke-miterlimit:10;" d="M 878.164062 1768.4375 L 878.164062 2113.789062 " transform="matrix(0.1,0,0,-0.1,0,300)"/>
<path style="fill:none;stroke-width:7.97011;stroke-linecap:round;stroke-linejoin:round;stroke:rgb(100%,50%,0%);stroke-opacity:1;stroke-miterlimit:10;" d="M 1702.851562 1772.851562 L 1702.851562 1969.882812 " transform="matrix(0.1,0,0,-0.1,0,300)"/>
<path style=" stroke:none;fill-rule:nonzero;fill:rgb(100%,50%,0%);fill-opacity:1;" d="M 170.285156 134.667969 C 170.746094 129.363281 172.445312 124.242188 175.234375 119.714844 L 170.285156 122.714844 L 165.332031 119.714844 C 168.125 124.242188 169.820312 129.363281 170.285156 134.667969 "/>
<path style="fill:none;stroke-width:7.97011;stroke-linecap:round;stroke-linejoin:round;stroke:rgb(100%,50%,0%);stroke-opacity:1;stroke-miterlimit:10;" d="M 1702.851562 1653.320312 C 1707.460938 1706.367188 1724.453125 1757.578125 1752.34375 1802.851562 L 1702.851562 1772.851562 L 1653.320312 1802.851562 C 1681.25 1757.578125 1698.203125 1706.367188 1702.851562 1653.320312 Z M 1702.851562 1653.320312 " transform="matrix(0.1,0,0,-0.1,0,300)"/>
<path style="fill:none;stroke-width:19.9253;stroke-linecap:round;stroke-linejoin:round;stroke:rgb(100%,50%,0%);stroke-opacity:1;stroke-miterlimit:10;" d="M 1702.851562 2056.210938 L 1702.851562 1710.898438 " transform="matrix(0.1,0,0,-0.1,0,300)"/>
<path style="fill:none;stroke-width:7.97011;stroke-linecap:round;stroke-linejoin:round;stroke:rgb(0%,50%,100%);stroke-opacity:1;stroke-miterlimit:10;" d="M 2527.5 2051.796875 L 2527.5 1854.765625 " transform="matrix(0.1,0,0,-0.1,0,300)"/>
<path style=" stroke:none;fill-rule:nonzero;fill:rgb(0%,50%,100%);fill-opacity:1;" d="M 252.75 82.863281 C 252.285156 88.167969 250.589844 93.289062 247.800781 97.820312 L 252.75 94.820312 L 257.703125 97.820312 C 254.910156 93.289062 253.214844 88.167969 252.75 82.863281 "/>
<g clip-path="url(#clip3)" clip-rule="nonzero">
<path style="fill:none;stroke-width:7.97011;stroke-linecap:round;stroke-linejoin:round;stroke:rgb(0%,50%,100%);stroke-opacity:1;stroke-miterlimit:10;" d="M 2527.5 2171.367188 C 2522.851562 2118.320312 2505.898438 2067.109375 2478.007812 2021.796875 L 2527.5 2051.796875 L 2577.03125 2021.796875 C 2549.101562 2067.109375 2532.148438 2118.320312 2527.5 2171.367188 Z M 2527.5 2171.367188 " transform="matrix(0.1,0,0,-0.1,0,300)"/>
</g>
<path style="fill:none;stroke-width:19.9253;stroke-linecap:round;stroke-linejoin:round;stroke:rgb(0%,50%,100%);stroke-opacity:1;stroke-miterlimit:10;" d="M 2527.5 1768.4375 L 2527.5 2113.789062 " transform="matrix(0.1,0,0,-0.1,0,300)"/>
<path style="fill:none;stroke-width:7.97011;stroke-linecap:round;stroke-linejoin:round;stroke:rgb(100%,50%,0%);stroke-opacity:1;stroke-miterlimit:10;" d="M 53.515625 2597.539062 L 53.515625 2794.570312 " transform="matrix(0.1,0,0,-0.1,0,300)"/>
<path style=" stroke:none;fill-rule:nonzero;fill:rgb(100%,50%,0%);fill-opacity:1;" d="M 5.351562 52.199219 C 5.8125 46.898438 7.511719 41.777344 10.300781 37.246094 L 5.351562 40.246094 L 0.398438 37.246094 C 3.191406 41.777344 4.886719 46.898438 5.351562 52.199219 "/>
<path style="fill:none;stroke-width:7.97011;stroke-linecap:round;stroke-linejoin:round;stroke:rgb(100%,50%,0%);stroke-opacity:1;stroke-miterlimit:10;" d="M 53.515625 2478.007812 C 58.125 2531.015625 75.117188 2582.226562 103.007812 2627.539062 L 53.515625 2597.539062 L 3.984375 2627.539062 C 31.914062 2582.226562 48.867188 2531.015625 53.515625 2478.007812 Z M 53.515625 2478.007812 " transform="matrix(0.1,0,0,-0.1,0,300)"/>
<path style="fill:none;stroke-width:19.9253;stroke-linecap:round;stroke-linejoin:round;stroke:rgb(100%,50%,0%);stroke-opacity:1;stroke-miterlimit:10;" d="M 53.515625 2880.898438 L 53.515625 2535.546875 " transform="matrix(0.1,0,0,-0.1,0,300)"/>
<path style="fill:none;stroke-width:7.97011;stroke-linecap:round;stroke-linejoin:round;stroke:rgb(0%,50%,100%);stroke-opacity:1;stroke-miterlimit:10;" d="M 878.164062 2876.445312 L 878.164062 2679.453125 " transform="matrix(0.1,0,0,-0.1,0,300)"/>
<path style=" stroke:none;fill-rule:nonzero;fill:rgb(0%,50%,100%);fill-opacity:1;" d="M 87.816406 0.398438 C 87.351562 5.699219 85.65625 10.820312 82.863281 15.355469 L 87.816406 12.355469 L 92.769531 15.355469 C 89.976562 10.820312 88.28125 5.699219 87.816406 0.398438 "/>
<path style="fill:none;stroke-width:7.97011;stroke-linecap:round;stroke-linejoin:round;stroke:rgb(0%,50%,100%);stroke-opacity:1;stroke-miterlimit:10;" d="M 878.164062 2996.015625 C 873.515625 2943.007812 856.5625 2891.796875 828.632812 2846.445312 L 878.164062 2876.445312 L 927.695312 2846.445312 C 899.765625 2891.796875 882.8125 2943.007812 878.164062 2996.015625 Z M 878.164062 2996.015625 " transform="matrix(0.1,0,0,-0.1,0,300)"/>
<path style="fill:none;stroke-width:19.9253;stroke-linecap:round;stroke-linejoin:round;stroke:rgb(0%,50%,100%);stroke-opacity:1;stroke-miterlimit:10;" d="M 878.164062 2593.125 L 878.164062 2938.476562 " transform="matrix(0.1,0,0,-0.1,0,300)"/>
<path style="fill:none;stroke-width:7.97011;stroke-linecap:round;stroke-linejoin:round;stroke:rgb(100%,50%,0%);stroke-opacity:1;stroke-miterlimit:10;" d="M 1702.851562 2597.539062 L 1702.851562 2794.570312 " transform="matrix(0.1,0,0,-0.1,0,300)"/>
<path style=" stroke:none;fill-rule:nonzero;fill:rgb(100%,50%,0%);fill-opacity:1;" d="M 170.285156 52.199219 C 170.746094 46.898438 172.445312 41.777344 175.234375 37.246094 L 170.285156 40.246094 L 165.332031 37.246094 C 168.125 41.777344 169.820312 46.898438 170.285156 52.199219 "/>
<path style="fill:none;stroke-width:7.97011;stroke-linecap:round;stroke-linejoin:round;stroke:rgb(100%,50%,0%);stroke-opacity:1;stroke-miterlimit:10;" d="M 1702.851562 2478.007812 C 1707.460938 2531.015625 1724.453125 2582.226562 1752.34375 2627.539062 L 1702.851562 2597.539062 L 1653.320312 2627.539062 C 1681.25 2582.226562 1698.203125 2531.015625 1702.851562 2478.007812 Z M 1702.851562 2478.007812 " transform="matrix(0.1,0,0,-0.1,0,300)"/>
<path style="fill:none;stroke-width:19.9253;stroke-linecap:round;stroke-linejoin:round;stroke:rgb(100%,50%,0%);stroke-opacity:1;stroke-miterlimit:10;" d="M 1702.851562 2880.898438 L 1702.851562 2535.546875 " transform="matrix(0.1,0,0,-0.1,0,300)"/>
<path style="fill:none;stroke-width:7.97011;stroke-linecap:round;stroke-linejoin:round;stroke:rgb(0%,50%,100%);stroke-opacity:1;stroke-miterlimit:10;" d="M 2527.5 2876.445312 L 2527.5 2679.453125 " transform="matrix(0.1,0,0,-0.1,0,300)"/>
<path style=" stroke:none;fill-rule:nonzero;fill:rgb(0%,50%,100%);fill-opacity:1;" d="M 252.75 0.398438 C 252.285156 5.699219 250.589844 10.820312 247.800781 15.355469 L 252.75 12.355469 L 257.703125 15.355469 C 254.910156 10.820312 253.214844 5.699219 252.75 0.398438 "/>
<g clip-path="url(#clip4)" clip-rule="nonzero">
<path style="fill:none;stroke-width:7.97011;stroke-linecap:round;stroke-linejoin:round;stroke:rgb(0%,50%,100%);stroke-opacity:1;stroke-miterlimit:10;" d="M 2527.5 2996.015625 C 2522.851562 2943.007812 2505.898438 2891.796875 2478.007812 2846.445312 L 2527.5 2876.445312 L 2577.03125 2846.445312 C 2549.101562 2891.796875 2532.148438 2943.007812 2527.5 2996.015625 Z M 2527.5 2996.015625 " transform="matrix(0.1,0,0,-0.1,0,300)"/>
</g>
<path style="fill:none;stroke-width:19.9253;stroke-linecap:round;stroke-linejoin:round;stroke:rgb(0%,50%,100%);stroke-opacity:1;stroke-miterlimit:10;" d="M 2527.5 2593.125 L 2527.5 2938.476562 " transform="matrix(0.1,0,0,-0.1,0,300)"/>
</g>
</svg>
